<svg width="169" height="31" viewBox="0 0 169 31" fill="none" xmlns="http://www.w3.org/2000/svg">
<path fill-rule="evenodd" clip-rule="evenodd" d="M5.63542 26.3841C6.13635 25.8228 6.32419 25.0119 6.32419 24.0139C6.32419 22.9535 6.07373 22.1427 5.63542 21.5813C5.19711 21.0199 4.50834 20.7081 3.69433 20.7081C2.88033 20.7081 2.19155 20.8952 1.69063 21.5189C1.1897 22.1427 1.00185 22.8912 1.00185 23.9515C1.00185 25.0119 1.25232 25.8228 1.69063 26.3841C2.12894 26.9455 2.81771 27.2574 3.63172 27.2574C4.50834 27.195 5.13449 26.9455 5.63542 26.3841ZM5.63542 20.2715C6.19896 20.6457 6.57466 21.0823 6.88774 21.7684C7.20082 22.3922 7.32605 23.1407 7.32605 23.9515C7.32605 24.7624 7.20082 25.5109 6.88774 26.1346C6.57466 26.7584 6.19896 27.2574 5.63542 27.5692C5.07188 27.8811 4.44572 28.0682 3.75695 28.0682C3.13079 28.0682 2.56725 27.9435 2.06632 27.6316C1.56539 27.3197 1.25231 26.9455 1.00185 26.3841V30.5008C1.00185 30.6256 0.939238 30.7503 0.876622 30.8751C0.814006 30.9998 0.688773 30.9998 0.500926 30.9998C0.313078 30.9998 0.250464 30.9375 0.125232 30.8751C0.0626163 30.8127 0 30.688 0 30.5008V20.3338C0 20.2091 0.0626163 20.0843 0.125232 19.9596C0.250464 19.8348 0.313078 19.8348 0.500926 19.8348C0.688773 19.8348 0.75139 19.8972 0.876622 19.9596C0.939238 20.0843 1.00185 20.1467 1.00185 20.3338V21.4566C1.25231 20.8952 1.62801 20.521 2.06632 20.2091C2.50463 19.8972 3.13079 19.7725 3.75695 19.7725C4.50834 19.7725 5.13449 19.9596 5.63542 20.2715Z" fill="white"/>
<path fill-rule="evenodd" clip-rule="evenodd" d="M15.0276 26.3843C15.4659 25.8229 15.7164 25.012 15.7164 23.9517C15.7164 22.8913 15.4659 22.0804 15.0276 21.5191C14.5267 20.9577 13.9005 20.6458 13.0865 20.6458C12.2725 20.6458 11.5838 20.9577 11.1454 21.5191C10.7071 22.0804 10.4567 22.8913 10.4567 23.9517C10.4567 25.012 10.7071 25.8229 11.1454 26.3843C11.5838 26.9456 12.2725 27.2575 13.0865 27.2575C13.9005 27.2575 14.5267 26.9456 15.0276 26.3843ZM11.0828 27.5694C10.5193 27.2575 10.081 26.7585 9.7679 26.1348C9.45482 25.511 9.32959 24.7625 9.32959 23.9517C9.32959 23.1408 9.45482 22.3923 9.7679 21.7686C10.081 21.1448 10.5193 20.6458 11.0828 20.334C11.6464 20.0221 12.2725 19.835 13.0239 19.835C13.7753 19.835 14.4015 20.0221 14.965 20.334C15.5286 20.6458 15.9669 21.1448 16.2799 21.7686C16.593 22.3923 16.7183 23.1408 16.7183 23.9517C16.7183 24.7625 16.593 25.511 16.2799 26.1348C15.9669 26.7585 15.5286 27.2575 14.965 27.5694C14.4015 27.8812 13.7753 28.0684 13.0239 28.0684C12.3351 28.1307 11.6464 27.9436 11.0828 27.5694Z" fill="white"/>
<path fill-rule="evenodd" clip-rule="evenodd" d="M30.682 19.8348C30.8072 19.8348 30.9325 19.8972 31.0577 19.9596C31.1829 20.022 31.1829 20.1467 31.1829 20.2715C31.1829 20.2715 31.1829 20.3338 31.1203 20.4586L28.3652 27.694C28.3026 27.8187 28.24 27.8811 28.1147 28.0059C27.9895 28.0682 27.9269 28.1306 27.8017 28.1306C27.6764 28.1306 27.5512 28.0682 27.4886 28.0059C27.3634 27.9435 27.3007 27.8187 27.2381 27.694L24.7961 21.3942L22.3541 27.694C22.2915 27.8187 22.2289 27.8811 22.1036 28.0059C21.9784 28.0682 21.9158 28.1306 21.7906 28.1306C21.6653 28.1306 21.5401 28.0682 21.4775 28.0059C21.3522 27.9435 21.2896 27.8187 21.227 27.694L18.4093 20.521C18.4093 20.4586 18.3467 20.3962 18.3467 20.3338C18.3467 20.2091 18.4093 20.0843 18.5345 19.9596C18.6598 19.8348 18.785 19.8348 18.9102 19.8348C19.0981 19.8348 19.2859 19.9596 19.3485 20.1467L21.7906 26.696L24.2952 20.2091C24.3578 20.0843 24.4204 20.022 24.483 19.8972C24.5456 19.7725 24.6709 19.7725 24.7961 19.7725C24.9213 19.7725 24.984 19.8348 25.1092 19.8972C25.2344 19.9596 25.297 20.0843 25.297 20.2091L27.8017 26.696L30.2437 20.2091C30.3063 19.8972 30.4315 19.8348 30.682 19.8348Z" fill="white"/>
<path fill-rule="evenodd" clip-rule="evenodd" d="M34.689 21.3322C34.2507 21.8312 33.9376 22.5173 33.875 23.3905H39.0095C39.0095 22.5173 38.759 21.8312 38.3207 21.3322C37.8824 20.8332 37.3189 20.5837 36.5675 20.5837C35.7535 20.5837 35.1273 20.8332 34.689 21.3322ZM39.6983 26.3845C39.7609 26.4469 39.8235 26.5716 39.8235 26.6964C39.8235 26.9459 39.6357 27.1954 39.26 27.3825C38.446 27.8815 37.632 28.0686 36.7553 28.0686C35.503 28.0686 34.5638 27.6944 33.875 26.9459C33.1862 26.1974 32.8105 25.1994 32.8105 23.8895C32.8105 23.0787 32.9984 22.3302 33.3115 21.7064C33.6245 21.0827 34.0629 20.5837 34.6264 20.2094C35.1899 19.8352 35.8787 19.7104 36.5675 19.7104C37.632 19.7104 38.446 20.0223 39.0095 20.7084C39.6357 21.3946 39.8861 22.2678 39.8861 23.4529C39.8861 23.64 39.8235 23.8272 39.7609 23.8895C39.6983 24.0143 39.5104 24.0143 39.3226 24.0143H33.8124C33.875 25.0123 34.1255 25.8231 34.6264 26.3221C35.1273 26.8211 35.8161 27.133 36.7553 27.133C37.2563 27.133 37.632 27.0706 37.945 26.9459C38.2581 26.8211 38.6338 26.634 38.9469 26.4469C39.1974 26.2597 39.3852 26.1974 39.4478 26.1974C39.5731 26.2597 39.6357 26.3221 39.6983 26.3845Z" fill="white"/>
<path fill-rule="evenodd" clip-rule="evenodd" d="M46.5233 19.8978C46.5859 19.9602 46.6485 20.0849 46.6485 20.2097C46.6485 20.4592 46.4607 20.6463 46.1476 20.6463L45.7093 20.7086C44.8953 20.771 44.3317 21.0829 43.956 21.5819C43.5803 22.0809 43.3925 22.6422 43.3925 23.266V27.5698C43.3925 27.7569 43.3299 27.8817 43.2672 27.9441C43.2046 28.0064 43.0794 28.0688 42.8916 28.0688C42.7037 28.0688 42.6411 28.0064 42.5159 27.9441C42.3906 27.8817 42.3906 27.7569 42.3906 27.5698V20.3344C42.3906 20.1473 42.4532 20.0225 42.5159 19.9602C42.6411 19.8978 42.7037 19.8354 42.8916 19.8354C43.0168 19.8354 43.142 19.8978 43.2672 19.9602C43.3299 20.0225 43.3925 20.1473 43.3925 20.3344V21.3948C43.8308 20.4591 44.7074 19.8978 45.8971 19.8354H46.1476C46.3354 19.773 46.4607 19.8354 46.5233 19.8978Z" fill="white"/>
<path fill-rule="evenodd" clip-rule="evenodd" d="M49.5292 21.3322C49.0909 21.8312 48.7779 22.5173 48.7152 23.3905H53.8497C53.8497 22.5173 53.5993 21.8312 53.161 21.3322C52.7226 20.8332 52.1591 20.5837 51.4077 20.5837C50.5937 20.5837 50.0302 20.8332 49.5292 21.3322ZM54.6011 26.3845C54.6637 26.4469 54.7264 26.5716 54.7264 26.6964C54.7264 26.9459 54.5385 27.1954 54.1628 27.3825C53.3488 27.8815 52.5348 28.0686 51.6582 28.0686C50.4059 28.0686 49.4666 27.6944 48.7779 26.9459C48.0891 26.1974 47.7134 25.1994 47.7134 23.8895C47.7134 23.0787 47.9012 22.3302 48.2143 21.7064C48.5274 21.0827 48.9657 20.5837 49.5292 20.2094C50.0928 19.8352 50.7816 19.7104 51.4703 19.7104C52.5348 19.7104 53.3488 20.0223 53.9123 20.7084C54.5385 21.3946 54.789 22.2678 54.789 23.4529C54.789 23.64 54.7264 23.8272 54.6637 23.8895C54.6011 24.0143 54.4133 24.0143 54.2254 24.0143H48.7152C48.7779 25.0123 49.0283 25.8231 49.5292 26.3221C50.0302 26.8211 50.7189 27.133 51.6582 27.133C52.1591 27.133 52.5348 27.0706 52.8479 26.9459C53.161 26.8211 53.5366 26.634 53.8497 26.4469C54.1002 26.2597 54.288 26.1974 54.3507 26.1974C54.4133 26.2597 54.4759 26.3221 54.6011 26.3845Z" fill="white"/>
<path fill-rule="evenodd" clip-rule="evenodd" d="M62.3654 26.3845C62.8037 25.8231 63.0542 25.0123 63.0542 23.9519C63.0542 22.8916 62.8037 22.0807 62.3654 21.5193C61.9271 20.9579 61.2383 20.6461 60.4243 20.6461C59.5477 20.6461 58.9215 20.9579 58.4206 21.5193C57.9823 22.0807 57.7318 22.8916 57.7318 23.9519C57.7318 25.0123 57.9823 25.8231 58.4206 26.3845C58.8589 26.9459 59.5477 27.2577 60.3617 27.2577C61.2383 27.1954 61.9271 26.9459 62.3654 26.3845ZM63.9308 16.4046C64.056 16.5294 64.056 16.5918 64.056 16.7789V27.5696C64.056 27.6944 63.9934 27.8191 63.9308 27.9439C63.8056 28.0686 63.7429 28.0686 63.5551 28.0686C63.3673 28.0686 63.3046 28.0062 63.1794 27.9439C63.1168 27.8191 63.0542 27.7567 63.0542 27.5696V26.4469C62.8037 27.0083 62.428 27.3825 61.9897 27.6944C61.4888 28.0062 60.9252 28.131 60.2991 28.131C59.6103 28.131 58.9842 27.9439 58.4206 27.632C57.8571 27.3201 57.4814 26.8211 57.1683 26.135C56.8552 25.5113 56.73 24.7628 56.73 23.9519C56.73 23.141 56.8552 22.3926 57.1683 21.7688C57.4814 21.1451 57.8571 20.6461 58.4206 20.3342C58.9842 20.0223 59.6103 19.8352 60.2991 19.8352C60.9252 19.8352 61.4888 19.96 61.9897 20.2718C62.4906 20.5837 62.8037 20.9579 63.0542 21.5193V16.8412C63.0542 16.7165 63.1168 16.5918 63.1794 16.467C63.242 16.3423 63.3673 16.3423 63.5551 16.3423C63.7429 16.3423 63.8056 16.2799 63.9308 16.4046Z" fill="white"/>
<path fill-rule="evenodd" clip-rule="evenodd" d="M77.2052 26.322C77.7062 25.7607 77.894 24.9498 77.894 23.8894C77.894 22.8291 77.6436 22.0806 77.2052 21.4568C76.7043 20.8955 76.0782 20.5836 75.2015 20.5836C74.3875 20.5836 73.6988 20.8955 73.2604 21.4568C72.8221 22.0182 72.5717 22.8291 72.5717 23.8894C72.5717 24.9498 72.8221 25.7607 73.2604 26.322C73.6988 26.8834 74.3875 27.1953 75.2015 27.1953C76.0782 27.1953 76.7043 26.8834 77.2052 26.322ZM77.2052 20.2717C77.7688 20.5836 78.1445 21.0826 78.4576 21.7063C78.7706 22.3301 78.8959 23.0786 78.8959 23.8894C78.8959 24.7003 78.7706 25.4488 78.4576 26.0725C78.1445 26.6963 77.7688 27.1953 77.2052 27.5695C76.6417 27.9438 76.0155 28.0685 75.3268 28.0685C74.7006 28.0685 74.1371 27.9438 73.6361 27.6319C73.1352 27.32 72.8221 26.9458 72.5717 26.3844V27.5071C72.5717 27.6319 72.5091 27.7566 72.4464 27.8814C72.3838 28.0061 72.2586 28.0061 72.0708 28.0061C71.8829 28.0061 71.8203 27.9438 71.6951 27.8814C71.5698 27.7566 71.5698 27.6943 71.5698 27.5071V16.7788C71.5698 16.654 71.6324 16.5293 71.6951 16.4045C71.8203 16.2798 71.8829 16.2798 72.0708 16.2798C72.2586 16.2798 72.3212 16.3422 72.4464 16.4045C72.5091 16.5293 72.5717 16.5917 72.5717 16.7788V21.4568C72.8221 20.8955 73.1978 20.5212 73.6361 20.2094C74.1371 19.8975 74.7006 19.7727 75.3268 19.7727C76.0782 19.7727 76.7043 19.9599 77.2052 20.2717Z" fill="white"/>
<path fill-rule="evenodd" clip-rule="evenodd" d="M87.6621 19.7725C87.7873 19.7725 87.9126 19.8348 87.9752 19.8972C88.0378 19.9596 88.1004 20.0843 88.1004 20.2091C88.1004 20.2715 88.1004 20.3338 88.0378 20.3962L83.3416 30.688C83.279 30.8751 83.0911 30.9998 82.9033 30.9998C82.7781 30.9998 82.6528 30.9375 82.5902 30.8751C82.465 30.8127 82.465 30.688 82.465 30.5632C82.465 30.5008 82.465 30.4385 82.5276 30.3761L83.7173 27.8187L80.3361 20.4586C80.2734 20.3962 80.2734 20.3338 80.2734 20.2715C80.2734 20.1467 80.3361 20.022 80.4613 19.9596C80.5865 19.8348 80.7118 19.8348 80.837 19.8348C81.0248 19.8348 81.2127 19.9596 81.2753 20.1467L84.2809 26.8208L87.2864 20.1467C87.349 19.8972 87.4743 19.7725 87.6621 19.7725Z" fill="white"/>
<path d="M102.502 17.34C102.189 17.34 101.939 17.2777 101.626 17.1529L95.2388 13.9718C94.6126 13.66 94.1743 12.9738 94.1743 12.2877V5.05232C94.1743 4.3662 94.6126 3.68008 95.2388 3.36821L101.626 0.187123C102.189 -0.0623742 102.815 -0.0623742 103.316 0.187123L109.703 3.36821C110.329 3.68008 110.768 4.3662 110.768 5.05232V12.2877C110.768 12.9738 110.329 13.66 109.703 13.9718L103.316 17.1529C103.128 17.2777 102.815 17.34 102.502 17.34ZM98.3696 11.2897L102.252 13.2233C102.44 13.2857 102.627 13.2857 102.815 13.2233L106.697 11.2897C106.885 11.165 107.073 10.9779 107.073 10.7284V6.61167C107.073 6.36217 106.948 6.17505 106.76 6.0503L102.878 4.1167C102.69 4.05433 102.502 4.05433 102.314 4.1167L98.4322 6.0503C98.2443 6.17505 98.0565 6.36217 98.0565 6.61167V10.7284C98.0565 10.9779 98.1817 11.165 98.3696 11.2897Z" fill="white"/>
<path d="M102.502 31.0002C102.189 31.0002 101.939 30.9378 101.626 30.8131L95.2388 27.632C94.6126 27.3201 94.1743 26.634 94.1743 25.9479V18.7125C94.1743 18.0264 94.6126 17.3402 95.2388 17.0284L101.626 13.8473C102.189 13.5978 102.815 13.5978 103.316 13.8473L109.703 17.0284C110.329 17.3402 110.768 18.0264 110.768 18.7125V25.9479C110.768 26.634 110.329 27.3201 109.703 27.632L103.316 30.8131C103.066 30.9378 102.753 31.0002 102.502 31.0002ZM102.189 17.8392L98.4948 19.7105C98.2443 19.8352 98.0565 20.0847 98.0565 20.3966V24.3262C98.0565 24.638 98.2443 24.8875 98.4948 25.0123L102.189 26.8835C102.44 27.0082 102.69 27.0082 102.878 26.8835L106.572 25.0123C106.823 24.8875 107.011 24.638 107.011 24.3262V20.3966C107.011 20.0847 106.823 19.8352 106.572 19.7105L102.878 17.8392C102.627 17.7145 102.377 17.7145 102.189 17.8392Z" fill="white"/>
<path d="M120.348 14.845H121.537L123.291 19.3359L125.106 14.845H126.296L124.105 20.2092L126.547 25.8852L131.118 14.7202H132.495L127.11 27.3198H125.983L123.353 21.0824L120.661 27.3198H119.596L114.274 14.7202H115.589L120.16 25.8852L122.539 20.2092L120.348 14.845Z" fill="white"/>
<path d="M138.068 14.7202H139.132L144.392 27.3198H143.077L141.449 23.3902H135.751L134.123 27.3198H132.808L138.068 14.7202ZM141.136 22.3922L138.569 16.1548L136.002 22.3922H141.136Z" fill="white"/>
<path d="M148.274 27.3198V14.7202H149.527V26.1971H156.853V27.3198H148.274Z" fill="white"/>
<path d="M160.421 27.3198V14.7202H161.674V26.1971H169V27.3198H160.421Z" fill="white"/>
<path d="M119.409 5.05242H117.28V10.479H116.027V5.05242H113.898V3.92969H119.346L119.409 5.05242ZM126.109 3.99206V10.5414H124.856V7.73452H121.851V10.5414H120.598V3.99206H121.851V6.61178H124.856V3.99206H126.109Z" fill="white"/>
</svg>
